<svg width="342" height="342" viewBox="0 0 342 342" fill="none" xmlns="http://www.w3.org/2000/svg" xmlns:xlink="http://www.w3.org/1999/xlink">
<path d="M340.628,170.314C340.628,203.998 330.64,236.928 311.924,264.936C293.21,292.944 266.612,314.772 235.49,327.664C204.37,340.554 170.125,343.928 137.087,337.356C104.05,330.784 73.703,314.562 49.884,290.744C26.065,266.926 9.844,236.578 3.273,203.54C-3.299,170.503 0.074,136.258 12.964,105.138C25.855,74.017 47.685,47.417 75.693,28.703C103.701,9.989 136.629,0 170.314,0L170.314,85.157C153.472,85.157 137.007,90.151 123.003,99.509C108.999,108.866 98.085,122.165 91.639,137.726C85.194,153.286 83.507,170.408 86.793,186.927C90.079,203.446 98.189,218.62 110.099,230.53C122.008,242.438 137.182,250.548 153.701,253.834C170.22,257.12 187.342,255.434 202.902,248.988C218.462,242.544 231.762,231.628 241.12,217.624C250.476,203.62 255.47,187.156 255.47,170.314L340.628,170.314Z" transform="rotate(-360 170.314 170.314)" fill="#0690FF"/>
<path d="M0,169.633L85.157,169.633L85.157,255.471C85.157,302.502 47.031,340.628 0,340.628L0,340.628Z" fill="#0690FF"/>
</svg>
