<svg width="171" height="171" viewBox="0 0 171 171" fill="none" xmlns="http://www.w3.org/2000/svg">
<path d="M1.52588e-05 85.157C1.52588e-05 68.3145 4.99438 51.8503 14.3516 37.8463C23.7087 23.8423 37.0084 12.9275 52.5688 6.48218C68.1292 0.03685 85.2515 -1.64955 101.77 1.63625C118.289 4.92206 133.463 13.0325 145.372 24.9419C157.282 36.8513 165.392 52.0248 168.678 68.5437C171.964 85.0625 170.277 102.185 163.832 117.745C157.386 133.306 146.472 146.605 132.468 155.962C118.464 165.32 101.999 170.314 85.157 170.314L85.157 127.735C93.5782 127.735 101.81 125.238 108.812 120.56C115.814 115.881 121.272 109.231 124.494 101.451C127.717 93.6709 128.56 85.1097 126.917 76.8503C125.274 68.5909 121.219 61.0041 115.265 55.0494C109.31 49.0947 101.723 45.0395 93.4637 43.3966C85.2042 41.7537 76.6431 42.5969 68.8629 45.8196C61.0827 49.0422 54.4329 54.4996 49.7543 61.5016C45.0757 68.5036 42.5785 76.7357 42.5785 85.157L1.52588e-05 85.157Z" fill="#0690FF"/>
<path d="M0 84.8164H42.5785V127.736C42.5785 151.251 23.5155 170.314 0 170.314L0 84.8164Z" fill="#0690FF"/>
</svg>
